<svg preserveAspectRatio="none" overflow="visible" style="display: block;" width="24" height="24" viewBox="0 0 24 24" fill="none" xmlns="http://www.w3.org/2000/svg">
<g id="chevron-up-mini">
<path id="icon" d="M12.0813 9.00392H12.0833C12.1996 9.01267 12.3135 9.03989 12.4202 9.08595H12.4212C12.5445 9.13945 12.6558 9.21734 12.7503 9.31349L16.5403 13.1026C16.8332 13.3954 16.8332 13.8702 16.5403 14.1631C16.2474 14.4558 15.7726 14.4559 15.4797 14.1631L12.0051 10.6885L8.53053 14.1631C8.23767 14.456 7.76288 14.4559 7.46998 14.1631C7.17709 13.8702 7.17709 13.3954 7.46998 13.1026L11.259 9.31251L11.26 9.31446C11.3297 9.24351 11.4081 9.18214 11.4944 9.1338L11.5901 9.08595C11.6961 9.04021 11.8094 9.01283 11.9251 9.00392C11.9514 9.00113 11.9781 9.00001 12.0051 9.00001L12.0813 9.00392Z" fill="#141415"/>
</g>
</svg>
