<svg preserveAspectRatio="none" overflow="visible" style="display: block;" width="16" height="16" viewBox="0 0 16 16" fill="none" xmlns="http://www.w3.org/2000/svg">
<g id="info-circle">
<path id="icon" d="M7.99902 1.49998C11.5879 1.50022 14.4971 4.4101 14.4971 7.999C14.4968 11.5878 11.5878 14.4968 7.99902 14.497C4.41011 14.497 1.50024 11.5879 1.5 7.999C1.5 4.40994 4.40996 1.49998 7.99902 1.49998ZM7.99902 2.49998C4.96224 2.49998 2.5 4.96223 2.5 7.999C2.50024 11.0356 4.96239 13.497 7.99902 13.497C11.0355 13.4968 13.4968 11.0355 13.4971 7.999C13.4971 4.96238 11.0356 2.50022 7.99902 2.49998ZM7.99902 7.03709C8.27496 7.03733 8.49902 7.2611 8.49902 7.53709V10.2676H9.38281C9.65895 10.2676 9.88281 10.4914 9.88281 10.7676C9.88259 11.0435 9.65882 11.2676 9.38281 11.2676H6.61426C6.33826 11.2675 6.11447 11.0435 6.11426 10.7676C6.11426 10.4914 6.33812 10.2676 6.61426 10.2676H7.49902V8.03709H7.07617C6.80003 8.03709 6.57617 7.81323 6.57617 7.53709C6.57617 7.26095 6.80003 7.03709 7.07617 7.03709H7.99902ZM7.99902 4.499C8.40221 4.49924 8.72923 4.82628 8.72949 5.22947C8.72949 5.59889 8.45454 5.90104 8.09863 5.95017C8.06617 5.95681 8.03246 5.96092 7.99804 5.96092C7.98984 5.96091 7.98177 5.95826 7.97363 5.95799C7.94701 5.95667 7.92087 5.95551 7.89551 5.95017C7.541 5.89976 7.26758 5.59787 7.26758 5.22947C7.26784 4.82631 7.59489 4.49929 7.99804 4.499H7.99902Z" fill="#141415"/>
</g>
</svg>
